<?xml version="1.0" standalone="no"?>
<!DOCTYPE svg PUBLIC "-//W3C//DTD SVG 20010904//EN"
 "http://www.w3.org/TR/2001/REC-SVG-20010904/DTD/svg10.dtd">
<svg version="1.0" xmlns="http://www.w3.org/2000/svg"
 width="1630.000000pt" height="1630.000000pt" viewBox="0 0 1630.000000 1630.000000"
 preserveAspectRatio="xMidYMid meet">
<metadata>
Created by potrace 1.11, written by Peter Selinger 2001-2013
</metadata>
<g transform="translate(0.000000,1630.000000) scale(0.100000,-0.100000)"
fill="#000000" stroke="none">
<path d="M7732 14549 c-141 -11 -365 -45 -491 -75 -136 -32 -217 -71 -261
-126 -37 -45 -120 -202 -120 -226 0 -19 -17 -12 -105 48 -41 27 -80 50 -88 50
-21 0 -218 -200 -314 -319 -100 -124 -283 -397 -376 -561 -65 -114 -67 -122
-222 -645 -107 -366 -185 -608 -250 -782 l-94 -252 -66 -775 -65 -774 0 -539
0 -538 44 -180 c80 -324 168 -580 271 -785 55 -109 152 -256 196 -297 19 -18
264 -221 544 -452 l510 -420 365 -152 c287 -120 475 -207 880 -410 l515 -257
338 -277 337 -277 -56 -61 c-120 -132 -246 -347 -340 -581 -117 -286 -275
-496 -504 -665 -130 -96 -405 -277 -602 -395 l-178 -106 -697 2 -698 3 -100
39 c-322 124 -414 204 -435 379 -4 40 -13 85 -19 101 -22 56 -83 135 -202 262
-137 146 -204 240 -229 322 -22 71 -40 212 -40 318 0 45 -3 109 -6 143 l-7 61
-81 -6 c-141 -10 -311 -42 -433 -82 l-118 -38 -3 -970 -2 -969 31 -124 c45
-181 91 -307 174 -476 278 -567 710 -938 1315 -1129 l115 -37 63 -94 62 -95
815 0 814 0 3 126 3 127 295 97 c493 163 814 290 994 392 182 104 323 230 374
334 24 50 26 52 77 58 165 19 355 139 540 340 161 176 210 256 224 366 11 82
37 133 116 221 89 100 120 187 131 368 12 194 71 320 236 497 196 211 257 325
298 561 11 61 34 151 51 200 39 111 138 315 225 461 l67 114 -37 124 c-109
374 -253 676 -404 851 -128 148 -368 308 -625 417 -96 41 -177 62 -675 172
-455 101 -654 151 -1006 251 l-440 126 -566 377 -566 378 -78 128 c-94 158
-213 395 -224 449 -17 79 29 224 154 480 135 277 290 501 479 691 118 119 195
176 308 230 121 57 183 69 347 68 191 -1 268 -15 430 -79 74 -30 180 -65 235
-80 263 -69 357 -113 473 -219 110 -101 163 -144 274 -220 144 -99 230 -136
345 -147 121 -11 155 -21 283 -79 58 -26 163 -68 233 -94 191 -69 247 -101
366 -209 36 -33 94 -73 129 -90 57 -27 71 -29 140 -25 120 7 203 61 256 166
33 65 90 231 132 382 l34 125 0 575 c0 573 0 575 -25 705 -48 245 -85 490 -94
615 -12 155 -39 244 -125 412 -135 265 -174 318 -543 754 -191 225 -498 574
-682 775 l-335 364 -75 12 c-152 25 -233 63 -351 168 -134 118 -266 191 -470
259 -373 125 -749 174 -1118 145z"/>
</g>
</svg>
